<svg id="Layer_1" data-name="Layer 1" xmlns="http://www.w3.org/2000/svg" viewBox="0 0 785.35 812.53"><path d="M838.15,956l.9,0-.45.07Z" transform="translate(-602.52 -143.54)" fill="#5d62fa"/><path d="M641.13,947.13c2.24-.38,4.49-1.09,6.73-1.09q346.95-.07,693.9,0a40.23,40.23,0,0,1,6.72,1.1c-2.51.11-5,.33-7.52.33q-346.15,0-692.31,0C646.15,947.46,643.64,947.24,641.13,947.13Z" transform="translate(-602.52 -143.54)" fill="#5d62fa"/><path d="M839.05,156.48l-.9,0A1.33,1.33,0,0,1,839.05,156.48Z" transform="translate(-602.52 -143.54)" fill="#5d62fa"/><path d="M790.27,204.38a3.9,3.9,0,0,1,.26.64c0,.07-.19.17-.29.26A1.39,1.39,0,0,1,790.27,204.38Z" transform="translate(-602.52 -143.54)" fill="#5d62fa"/><path d="M790.24,907.2a3,3,0,0,1,.3.62c0,.06-.18.18-.27.27A1.36,1.36,0,0,1,790.24,907.2Z" transform="translate(-602.52 -143.54)" fill="#5d62fa"/><path d="M649.12,143.79c2.5-.08,5-.24,7.52-.24q338.75,0,677.51,0c2.5,0,5,.15,7.52.24l1,0a36.58,36.58,0,0,1,25.72,10.11l1.75,1.76,7.54,9,1.39,2,1,2,1.17,2.16,0-.13c.43.94.85,1.88,1.28,2.81l-.07-.11,1.2,2.86-.06-.11c.72,5.8,2.07,11.6,2.07,17.4q.17,281.94.19,563.89c0,5.92-1.81,7.25-6.43,7.16-14.48-.28-29-.09-43.47-.08q-.63-8.21-1.25-16.41c-2.41-7.19-6.47-12.44-12.77-15.05l-2.26-.1-188,.07-1.16.15c-6,3.43-10.78,8.09-12,16.38-3.55,5.52-2.38,11.16-.3,16.82-.14,31,0,62-.53,92.93-.19,12.09,3.86,19.79,13.57,23.46,2.18.6,4.36,1.72,6.54,1.73q88.41.13,176.83,0c2.18,0,4.35-1.15,6.53-1.76,8.87-4.09,12.69-11.29,12.61-22.94-.2-30.86.46-61.74.78-92.61l1.31,0c14.46,0,28.92.22,43.37-.14,5-.12,6.64,1.62,6.57,7.66-.5,45.52-.73,91-1,136.58v.51c-.15.1-.43.21-.44.32a6.44,6.44,0,0,0,.15,1.06c-6.47,19.42-18.59,30.54-36,33.9-2.24-.38-4.48-1.1-6.72-1.1q-346.95-.07-693.9,0c-2.24,0-4.49.71-6.73,1.09L637.6,946l-3-1.34c-14.47-2.32-28.44-20.46-31.64-41.09a64.74,64.74,0,0,0,1-7.9q.06-349.55,0-699.1a62.51,62.51,0,0,0-1-7.89c3.82-26.48,22.8-45.36,45.15-44.91ZM1334,221.24h-34c0,2.63-.06,8-.09,10.59.3,2-.21,5.44.09,7.41v6c13,.67,23.56-.42,34,0,.4-1.88.24-4.33.64-6.21l-.12-3.38c0-1.85,0-3.71,0-5.56M936.84,708.61l1.17-.14c11.76-8.48,11.75-18.75,0-27.21l-1.14-.08q-137.65.06-275.31.09c-8,0-14.69,2.11-14.82,13.26-.14,11.43,6.43,14,14.81,14Q799.18,708.47,936.84,708.61Zm0-365.79c5.15-2.2,9.1-5.46,9.46-12.77.38-7.51-2.92-11.75-8.32-14.51l-2.27-.17q-137.37.11-274.73.15c-6.75,0-12.61,1.46-14.08,10.42-1.58,9.63,2.68,15,10.45,17,2,.41,4.07,1.19,6.11,1.19q133.66.09,267.32,0C932.79,344.14,934.81,343.28,936.83,342.82Zm-86.5-75.56c7.77-3.2,14.32-8.17,13.5-19.13-1.16-15.53,6.42-35-12.84-43.11-1.83-.46-3.65-1.31-5.47-1.31q-89.67-.11-179.34,0c-1.82,0-3.64.9-5.45,1.38A24.12,24.12,0,0,0,648,220l-.13,2.68c.06,2.92.16,5.85.16,8.77,0,14.65-2.65,30.79,14.52,35.81,2.17.62,4.34,1.79,6.51,1.79q87.38.15,174.75,0C846,269.07,848.16,267.89,850.33,267.26Zm45.85,100-1.11.12c-6.46,2.45-10.45,7.8-12.8,15.08-.13.12-.37.26-.36.36a5.06,5.06,0,0,0,.27.94l.06,102.42c-.11.16-.35.39-.31.47a6,6,0,0,0,.53,1c2.46,7.31,6.92,12.08,13.28,14.42,2.17.62,4.35,1.78,6.52,1.78q88.72.15,177.44,0c1.85,0,3.68-1.39,5.52-2.14,9.09-3.32,13.21-10.14,13.06-21.75q-.62-44.62,0-89.29c.17-11.24-3.15-18.77-11.84-23.13l-2.3-.21Zm222,118.11c2,8.78,6.75,14.28,14.16,16.68,2.17.61,4.34,1.76,6.51,1.76q87.91.15,175.83,0c2.17,0,4.33-1.18,6.49-1.8q10.32-3.75,13.49-15.89c.38-7.84,1.12-15.68,1.06-23.52-.2-26.71-.68-53.42-1.06-80.13-2.34-7.28-6.43-12.51-12.8-15.05l-2.27-.15H1132.79l-2.29.21c-6.13,3-10.3,8.19-12.28,15.72-.54,2.77-1.54,5.53-1.55,8.3-.12,25.58-.2,51.16,0,76.74C1116.74,473.91,1115,480,1118.21,485.34ZM849.14,502c6.79-2.55,11.27-7.81,13.4-15.83.4-7.33,1.19-14.67,1.14-22-.2-26.78-.69-53.57-1.06-80.35-1.86-8.06-6-13.63-12.8-16.41l-2.27-.15H660.72l-2.29.21c-6.19,3-10.38,8.17-12.32,15.77-.51,1.42-1.48,2.84-1.48,4.26q-.14,47.4,0,94.8c0,1.26,1.17,2.51,1.8,3.77,1.65,8.9,6.82,13.57,13.88,16,2.17.61,4.34,1.76,6.51,1.76q87.91.15,175.83,0C844.81,503.77,847,502.6,849.14,502Zm470.48,154.87,2.27-.15c6.43-2.48,10.43-7.81,12.81-15.05.37-22.95,1-45.89,1-68.84,0-12.06-.77-24.13-1.19-36.19-2.66-7.11-6.78-12.36-13.33-14.53-2-.62-4-1.78-5.93-1.78q-89-.15-178.1,0c-2,0-4.41-1-5.46,2.28-7,1.82-10.9,7.49-13.51,14.82-.52,1.41-1.5,2.81-1.5,4.22q-.15,48.21,0,96.41c0,1.21,1.26,2.42,1.92,3.63,3,10.67,9.18,15.17,18.79,15.14C1198.14,656.63,1258.88,656.79,1319.62,656.85ZM882.26,641.66c2.35,7.29,6.36,12.63,12.82,15.09l1.1.11H1083l3.45-.23c8.62-4.35,12-11.79,11.84-23q-.69-44.52,0-89c.18-12.12-4.24-19.13-13.69-22.51-2.17-.61-4.34-1.76-6.52-1.76q-87.91-.15-175.82,0c-2.17,0-4.33,1.17-6.5,1.79-6.57,2.08-10.67,7.31-13.3,14.42-.15.13-.42.26-.41.39a4.69,4.69,0,0,0,.2,1l-.06,102.42c-.12.14-.34.32-.32.4A6,6,0,0,0,882.26,641.66ZM646.11,537.42c-.52,1.41-1.48,2.82-1.48,4.23q-.14,48.15,0,96.29c0,1.23,1.21,2.45,1.86,3.68,2.85,10.86,9.21,15.15,18.74,15.14,60.77-.12,121.55,0,182.32.09l2.3-.22c6.95-2.51,10.74-8.44,12.73-16.31.39-6.43,1.15-12.87,1.1-19.29-.22-27.23-.69-54.45-1.06-81.67-1.67-8.8-6.14-14.59-13.48-17.27-2-.62-3.95-1.78-5.92-1.78q-89.06-.15-178.11,0c-2,0-4.41-1-5.45,2.28C652.56,524.26,648.67,530,646.11,537.42Zm0,228.81c-.14,31.28-.07,62.56-.53,93.83-.18,12,4.12,19.24,13.59,22.73,2.18.59,4.35,1.7,6.52,1.71q88.47.13,176.93,0c2.19,0,4.37-1.1,6.56-1.69,9.37-4.59,12.82-12.72,12.42-24.68-.63-18.84-.31-37.72-.11-56.59.12-11.92.77-23.83,1.19-35.75a26,26,0,0,0-.08-16.29c-1.8-8.12-6.22-13.42-12.79-16.39l-2.28-.15-188,0-1.16.18A23.15,23.15,0,0,0,646.13,749,20.41,20.41,0,0,0,646.13,766.23Zm439.13-33.17-1.1-.1-188,0-1.16.19c-6.27,2.6-10.43,7.71-12.78,15-.12.12-.36.27-.35.37a5.38,5.38,0,0,0,.28.92V765.9l-1,2,.23.22-.13.31c-.44,1.44-1.25,2.89-1.25,4.34q-.12,44.69,0,89.37c0,1.54,1.15,3.07,1.76,4.61,1.51,8.39,6.32,13.13,12.82,16,2,.6,4,1.71,6,1.72q89.56.13,179.12,0c1.84,0,3.67-1.41,5.5-2.16,7.3-2.45,11.27-8.39,12.84-16.87,2-32.7,1.66-65.41.18-98.13C1098,753.77,1100.86,738.57,1085.26,733.06Z" transform="translate(-602.52 -143.54)" fill="#5d62fa"/><path d="M1335.91,764.53c14.48,0,29-.19,43.46.09,4.62.08,6.43-1.24,6.43-7.16q-.18-282-.19-563.89c0-5.8-1.35-11.6-2.07-17.4,3.72,7.79,4.33,16.35,4.33,25q0,344.84-.06,689.67c0,7,0,14.1-3.06,20.5.32-45.52.55-91.05,1-136.57.07-6-1.54-7.79-6.57-7.66-14.45.35-28.91.13-43.37.14C1335.88,766.34,1335.89,765.44,1335.91,764.53Z" transform="translate(-602.52 -143.54)" fill="#5d62fa"/><path d="M602.92,188.73a62.13,62.13,0,0,1,1,7.88q.06,349.56,0,699.11a64.34,64.34,0,0,1-1,7.89c-.15-3.86-.42-7.71-.42-11.57q0-346.21,0-692.42C602.55,196,602.79,192.36,602.92,188.73Z" transform="translate(-602.52 -143.54)" fill="#5d62fa"/><path d="M1382.47,173.53l-1.28-2.81Z" transform="translate(-602.52 -143.54)" fill="#5d62fa"/><path d="M1383.6,176.28l-1.2-2.87Z" transform="translate(-602.52 -143.54)" fill="#5d62fa"/><path d="M1370.17,155.72l-1.75-1.76C1369,154.54,1369.59,155.13,1370.17,155.72Z" transform="translate(-602.52 -143.54)" fill="#5d62fa"/><path d="M1379.1,166.67l-1.39-1.95Z" transform="translate(-602.52 -143.54)" fill="#5d62fa"/><path d="M1381.24,170.84l-1.17-2.15Z" transform="translate(-602.52 -143.54)" fill="#5d62fa"/><path d="M1342.7,143.85l-1,0A1.32,1.32,0,0,1,1342.7,143.85Z" transform="translate(-602.52 -143.54)" fill="#5d62fa"/><path d="M649.12,143.81h-1A1.46,1.46,0,0,1,649.12,143.81Z" transform="translate(-602.52 -143.54)" fill="#5d62fa"/><path d="M1384.47,913.24a6.56,6.56,0,0,1-.15-1.07c0-.11.29-.21.44-.32C1384.66,912.31,1384.56,912.78,1384.47,913.24Z" transform="translate(-602.52 -143.54)" fill="#5d62fa"/><path d="M895.74,502l189.48-.37c-1.84.74-3.67,2.14-5.52,2.14q-88.71.17-177.44,0C900.09,503.79,897.91,502.63,895.74,502Z" transform="translate(-602.52 -143.54)" fill="#5d62fa"/><path d="M849.14,522.11l-189.48.45c1-3.29,3.49-2.27,5.45-2.27q89.05-.07,178.11,0C845.19,520.33,847.17,521.49,849.14,522.11Z" transform="translate(-602.52 -143.54)" fill="#5d62fa"/><path d="M1321.21,522.1l-189.49.46c1-3.3,3.49-2.27,5.46-2.27q89.05-.07,178.1,0C1317.26,520.33,1319.24,521.48,1321.21,522.1Z" transform="translate(-602.52 -143.54)" fill="#5d62fa"/><path d="M1084.59,522.08l-188.84,0c2.17-.62,4.33-1.79,6.5-1.79q87.91-.15,175.82,0C1080.25,520.33,1082.42,521.47,1084.59,522.08Z" transform="translate(-602.52 -143.54)" fill="#5d62fa"/><path d="M1132.37,502l188.83,0c-2.16.63-4.32,1.8-6.49,1.8q-87.92.15-175.83,0C1136.71,503.79,1134.54,502.65,1132.37,502Z" transform="translate(-602.52 -143.54)" fill="#5d62fa"/><path d="M660.3,502l188.83,0c-2.16.63-4.32,1.8-6.49,1.8q-87.92.15-175.83,0C664.64,503.79,662.47,502.65,660.3,502Z" transform="translate(-602.52 -143.54)" fill="#5d62fa"/><path d="M662.57,267.3l187.76,0c-2.17.63-4.33,1.81-6.5,1.82q-87.37.15-174.75,0C666.91,269.08,664.74,267.92,662.57,267.3Z" transform="translate(-602.52 -143.54)" fill="#5d62fa"/><path d="M657.34,343l279.49-.14c-2,.47-4,1.33-6.06,1.33q-133.66.1-267.32,0C661.41,344.17,659.38,343.39,657.34,343Z" transform="translate(-602.52 -143.54)" fill="#5d62fa"/><path d="M894.65,882.79l190.57-.46c-1.83.76-3.66,2.16-5.5,2.16q-89.57.18-179.12,0C898.62,884.51,896.63,883.39,894.65,882.79Z" transform="translate(-602.52 -143.54)" fill="#5d62fa"/><path d="M851,205l-190.26.06c1.81-.48,3.63-1.37,5.45-1.37q89.67-.12,179.34,0C847.34,203.73,849.16,204.58,851,205Z" transform="translate(-602.52 -143.54)" fill="#5d62fa"/><path d="M659.19,882.8l190,0c-2.18.59-4.36,1.69-6.55,1.69q-88.47.15-176.93,0C663.54,884.51,661.37,883.4,659.19,882.8Z" transform="translate(-602.52 -143.54)" fill="#5d62fa"/><path d="M1131.26,882.79l189.89,0c-2.17.61-4.34,1.75-6.52,1.75q-88.41.15-176.83,0C1135.62,884.51,1133.44,883.39,1131.26,882.79Z" transform="translate(-602.52 -143.54)" fill="#5d62fa"/><path d="M1118.21,537.39q.21,52.13.41,104.26c-.66-1.22-1.91-2.42-1.92-3.64q-.15-48.19,0-96.4C1116.71,540.2,1117.69,538.79,1118.21,537.39Z" transform="translate(-602.52 -143.54)" fill="#5d62fa"/><path d="M646.11,537.44q.18,52.09.38,104.2c-.65-1.23-1.86-2.46-1.86-3.69q-.15-48.13,0-96.28C644.63,540.26,645.59,538.85,646.11,537.44Z" transform="translate(-602.52 -143.54)" fill="#5d62fa"/><path d="M646.11,383.24q.15,51.42.31,102.83c-.63-1.26-1.79-2.51-1.8-3.77q-.14-47.4,0-94.8C644.63,386.08,645.6,384.66,646.11,383.24Z" transform="translate(-602.52 -143.54)" fill="#5d62fa"/><path d="M1118.22,383.19q0,51.07,0,102.16c-3.22-5.35-1.47-11.43-1.52-17.12-.22-25.58-.14-51.17,0-76.75C1116.68,388.72,1117.68,386,1118.22,383.19Z" transform="translate(-602.52 -143.54)" fill="#5d62fa"/><path d="M1334.7,641.67q-.09-52.51-.16-105c.42,12.06,1.24,24.13,1.19,36.19C1335.65,595.77,1335.07,618.72,1334.7,641.67Z" transform="translate(-602.52 -143.54)" fill="#5d62fa"/><path d="M1334.69,486.11V382.45c.38,26.72.86,53.42,1.06,80.14C1335.81,470.42,1335.07,478.27,1334.69,486.11Z" transform="translate(-602.52 -143.54)" fill="#5d62fa"/><path d="M862.54,486.17l.08-102.35c.37,26.78.86,53.56,1.06,80.35C863.73,471.5,862.94,478.84,862.54,486.17Z" transform="translate(-602.52 -143.54)" fill="#5d62fa"/><path d="M862.58,640.33q0-50.48,0-101c.37,27.22.84,54.44,1.06,81.66C863.73,627.47,863,633.9,862.58,640.33Z" transform="translate(-602.52 -143.54)" fill="#5d62fa"/><path d="M881.3,768.48q.26,49.17.53,98.33c-.61-1.54-1.75-3.07-1.76-4.61q-.15-44.69,0-89.38C880.05,771.38,880.86,769.93,881.3,768.48Z" transform="translate(-602.52 -143.54)" fill="#5d62fa"/><path d="M1098.06,865.47l.18-98.13C1099.72,800.05,1100.05,832.76,1098.06,865.47Z" transform="translate(-602.52 -143.54)" fill="#5d62fa"/><path d="M1334.66,239.05l-35.5-.1-1.14-3.39,36.51.11C1334.58,236.8,1334.62,237.92,1334.66,239.05Z" transform="translate(-602.52 -143.54)" fill="#5d62fa"/><path d="M1300,227.28l34.59.14c0,.89,0,1.79,0,2.69l-34.6.15Z" transform="translate(-602.52 -143.54)" fill="#5d62fa"/><path d="M1334,221.24c-10.86,0-23.14,0-34,0A80.52,80.52,0,0,1,1334,221.24Z" transform="translate(-602.52 -143.54)" fill="#5d62fa"/><path d="M1118.52,749.58l-.3,16.81C1116.14,760.74,1115,755.1,1118.52,749.58Z" transform="translate(-602.52 -143.54)" fill="#5d62fa"/><path d="M646.13,749v17.27A20.41,20.41,0,0,1,646.13,749Z" transform="translate(-602.52 -143.54)" fill="#5d62fa"/><path d="M1334.55,767.21q0-9.54.1-19.08.61,8.19,1.25,16.4c0,.91,0,1.81,0,2.72Z" transform="translate(-602.52 -143.54)" fill="#5d62fa"/><path d="M862.7,765.81q0-8.14-.08-16.29A26,26,0,0,1,862.7,765.81Z" transform="translate(-602.52 -143.54)" fill="#5d62fa"/><path d="M1083,656.88l3.45-.22Z" transform="translate(-602.52 -143.54)" fill="#5d62fa"/><path d="M1321.88,733.08l-2.26-.1Z" transform="translate(-602.52 -143.54)" fill="#5d62fa"/><path d="M849.83,733.13l-2.28-.15Z" transform="translate(-602.52 -143.54)" fill="#5d62fa"/><path d="M648,220l-.13,2.69Z" transform="translate(-602.52 -143.54)" fill="#5d62fa"/><path d="M847.55,656.87l2.3-.22Z" transform="translate(-602.52 -143.54)" fill="#5d62fa"/><path d="M1319.62,656.87l2.27-.16Z" transform="translate(-602.52 -143.54)" fill="#5d62fa"/><path d="M1321.89,367.41l-2.27-.16Z" transform="translate(-602.52 -143.54)" fill="#5d62fa"/><path d="M849.82,367.41l-2.27-.16Z" transform="translate(-602.52 -143.54)" fill="#5d62fa"/><path d="M1132.79,367.26l-2.29.21Z" transform="translate(-602.52 -143.54)" fill="#5d62fa"/><path d="M1086.46,367.47l-2.3-.22Z" transform="translate(-602.52 -143.54)" fill="#5d62fa"/><path d="M660.72,367.26l-2.29.21Z" transform="translate(-602.52 -143.54)" fill="#5d62fa"/><path d="M938,315.56l-2.27-.17Z" transform="translate(-602.52 -143.54)" fill="#5d62fa"/><path d="M882.24,486.16l.21,1.44a7.44,7.44,0,0,1-.52-1C881.89,486.55,882.13,486.33,882.24,486.16Z" transform="translate(-602.52 -143.54)" fill="#5d62fa"/><path d="M1085.26,733.07l-.55,0-.55-.15Z" transform="translate(-602.52 -143.54)" fill="#5d62fa"/><path d="M1131.65,733.05l-1.16.14Z" transform="translate(-602.52 -143.54)" fill="#5d62fa"/><path d="M659.58,733l-1.16.19Z" transform="translate(-602.52 -143.54)" fill="#5d62fa"/><path d="M936.84,708.63l1.17-.15Z" transform="translate(-602.52 -143.54)" fill="#5d62fa"/><path d="M938,681.27l-.58.08-.56-.16Z" transform="translate(-602.52 -143.54)" fill="#5d62fa"/><path d="M882.25,748.15a2.81,2.81,0,0,1-.07,1.29,4.89,4.89,0,0,1-.28-.92C881.89,748.42,882.13,748.28,882.25,748.15Z" transform="translate(-602.52 -143.54)" fill="#5d62fa"/><path d="M895.08,656.77a2.07,2.07,0,0,1,1.1.1Z" transform="translate(-602.52 -143.54)" fill="#5d62fa"/><path d="M882.19,765.92l-1,2Z" transform="translate(-602.52 -143.54)" fill="#5d62fa"/><path d="M882.18,640.38a2.72,2.72,0,0,1,.08,1.3,6,6,0,0,1-.4-.9C881.84,640.7,882.06,640.52,882.18,640.38Z" transform="translate(-602.52 -143.54)" fill="#5d62fa"/><path d="M896.19,733l-1.16.19Z" transform="translate(-602.52 -143.54)" fill="#5d62fa"/><path d="M882.27,382.44a2.76,2.76,0,0,1-.09,1.31,5.29,5.29,0,0,1-.27-.94C881.9,382.71,882.14,382.57,882.27,382.44Z" transform="translate(-602.52 -143.54)" fill="#5d62fa"/><path d="M896.18,367.25l-.55.13h-.56Z" transform="translate(-602.52 -143.54)" fill="#5d62fa"/><path d="M882.45,536.53l-.21,1.43a4.77,4.77,0,0,1-.2-1C882,536.8,882.3,536.66,882.45,536.53Z" transform="translate(-602.52 -143.54)" fill="#5d62fa"/><path d="M1081.71,856.16c4.85,0,6.34,3.58,6.27,8.46s-2.91,7.49-6.77,7.49q-91.62.14-183.23,0c-3.33,0-6-2.06-6.47-6.42-.55-4.63.77-8,4.83-9.43a20.34,20.34,0,0,0,4.42,1q88.28.07,176.55,0C1078.78,857.25,1080.25,856.54,1081.71,856.16Z" transform="translate(-602.52 -143.54)" fill="#5d62fa"/><path d="M898.49,832.9h83.62l1,.07c4.46-.24,6.26,3.18,6.44,7.53.2,4.84-1.94,8.08-6.44,8.36l-1,0H898.49l-1-.11c-4-.73-6.11-3.38-6-8.28.13-4.56,2.11-7.07,6-7.51Z" transform="translate(-602.52 -143.54)" fill="#5d62fa"/><path d="M1081.71,856.16c-1.46.38-2.93,1.09-4.4,1.09q-88.27.09-176.55,0a20.34,20.34,0,0,1-4.42-1Z" transform="translate(-602.52 -143.54)" fill="#5d62fa"/><path d="M898.49,832.9l-1,.12A1,1,0,0,1,898.49,832.9Z" transform="translate(-602.52 -143.54)" fill="#5d62fa"/><path d="M897.46,848.81l1,.11L898,849Z" transform="translate(-602.52 -143.54)" fill="#5d62fa"/><path d="M983.14,833l-1-.07A1.2,1.2,0,0,1,983.14,833Z" transform="translate(-602.52 -143.54)" fill="#5d62fa"/><path d="M982.1,848.92l1,0-.51.14Z" transform="translate(-602.52 -143.54)" fill="#5d62fa"/><path d="M1318.33,856.16c4.63.41,6.3,3.73,6,8.74-.31,5.51-3.54,7.27-7.59,7.27q-90.71.08-181.41,0c-3.56,0-6.55-1.29-7.27-6s.43-8.53,4.86-9.93a25.55,25.55,0,0,0,5,1.06q87.71.07,175.42,0C1315,857.25,1316.67,856.54,1318.33,856.16Z" transform="translate(-602.52 -143.54)" fill="#5d62fa"/><path d="M1134.08,848.8c-3.91-.22-5.84-2.74-6.17-7.23s1.37-7.29,5-8.52l1-.16,84.77,0,1,.06c4.41.52,6.27,3.6,6,8.58-.3,5.16-2.91,7.38-7.15,7.3l-1,.07H1135.1Z" transform="translate(-602.52 -143.54)" fill="#5d62fa"/><path d="M1318.33,856.16c-1.66.38-3.32,1.09-5,1.09q-87.7.09-175.42,0a25.55,25.55,0,0,1-5-1.06Z" transform="translate(-602.52 -143.54)" fill="#5d62fa"/><path d="M1134,832.89l-1,.16A.92.92,0,0,1,1134,832.89Z" transform="translate(-602.52 -143.54)" fill="#5d62fa"/><path d="M1134.08,848.8l1,.12-.52.08Z" transform="translate(-602.52 -143.54)" fill="#5d62fa"/><path d="M1217.56,848.92l1-.07-.51.15Z" transform="translate(-602.52 -143.54)" fill="#5d62fa"/><path d="M1219.76,833l-1-.06A1.26,1.26,0,0,1,1219.76,833Z" transform="translate(-602.52 -143.54)" fill="#5d62fa"/><path d="M846.26,856.15c4.42.85,6.43,4.13,5.82,9.1s-3.78,7-8,7q-90.33,0-180.64,0c-4,0-7.53-1.58-8.22-6.69-.64-4.76,1.07-8.43,5.61-9.3a25.37,25.37,0,0,0,5,1q87.71.07,175.42,0C843,857.25,844.6,856.54,846.26,856.15Z" transform="translate(-602.52 -143.54)" fill="#5d62fa"/><path d="M745.49,848.92H663l-1-.12c-4-.23-6.6-2.53-6.82-7.28-.2-4.46,1.48-7.79,5.66-8.5l1-.12h83.61l1,.07c4.34-.05,6.9,2.52,7,7.57s-2.19,8.37-7,8.31Z" transform="translate(-602.52 -143.54)" fill="#5d62fa"/><path d="M846.26,856.15c-1.66.39-3.31,1.1-5,1.1q-87.7.09-175.42,0a25.37,25.37,0,0,1-5-1Z" transform="translate(-602.52 -143.54)" fill="#5d62fa"/><path d="M661.88,832.9l-1,.12A1.06,1.06,0,0,1,661.88,832.9Z" transform="translate(-602.52 -143.54)" fill="#5d62fa"/><path d="M746.53,833l-1-.07A1.23,1.23,0,0,1,746.53,833Z" transform="translate(-602.52 -143.54)" fill="#5d62fa"/><path d="M662,848.8l1,.12-.52.08Z" transform="translate(-602.52 -143.54)" fill="#5d62fa"/><path d="M745.49,848.92l1-.06L746,849Z" transform="translate(-602.52 -143.54)" fill="#5d62fa"/><path d="M657.22,634.09l1.71-2,191.08,0,1,1.07,0,10,.06-.09-1.26,1.34h0l-190.9.08-1.73-2.15C657.21,639.6,657.21,636.85,657.22,634.09Z" transform="translate(-602.52 -143.54)" fill="#5d62fa"/><path d="M657.22,610.89l1.71-2,92.49,0,1.05,1.07,0,10,.06-.09-1.26,1.35h0l-92.31.07-1.73-2.16Q657.22,615,657.22,610.89Z" transform="translate(-602.52 -143.54)" fill="#5d62fa"/><path d="M658.93,644.5l190.9-.08c-1.62.48-3.23,1.38-4.85,1.38q-90.6.12-181.22,0C662.15,645.81,660.54,645,658.93,644.5Z" transform="translate(-602.52 -143.54)" fill="#5d62fa"/><path d="M850,632.09l-191.08,0c2-.53,4-1.52,6-1.52q89.58-.12,179.16,0C846.05,630.55,848,631.55,850,632.09Z" transform="translate(-602.52 -143.54)" fill="#5d62fa"/><path d="M751.42,608.89l-92.49,0c16.29-.51,32.58-1.41,48.87-1.43C722.34,607.42,736.88,608.37,751.42,608.89Z" transform="translate(-602.52 -143.54)" fill="#5d62fa"/><path d="M658.93,621.3l92.31-.07c-10.28.5-20.57,1.47-30.84,1.4C699.91,622.49,679.42,621.78,658.93,621.3Z" transform="translate(-602.52 -143.54)" fill="#5d62fa"/><path d="M752.44,620l0-10A9.28,9.28,0,0,1,752.44,620Z" transform="translate(-602.52 -143.54)" fill="#5d62fa"/><path d="M851,643.17l0-10C853,636.51,853.14,639.84,851,643.17Z" transform="translate(-602.52 -143.54)" fill="#5d62fa"/><path d="M657.22,610.89q0,4.13,0,8.25A7.29,7.29,0,0,1,657.22,610.89Z" transform="translate(-602.52 -143.54)" fill="#5d62fa"/><path d="M657.22,634.09c0,2.76,0,5.51,0,8.26A7.29,7.29,0,0,1,657.22,634.09Z" transform="translate(-602.52 -143.54)" fill="#5d62fa"/><path d="M849.83,644.42l1.26-1.34Z" transform="translate(-602.52 -143.54)" fill="#5d62fa"/><path d="M751.24,621.23l1.26-1.35Z" transform="translate(-602.52 -143.54)" fill="#5d62fa"/><path d="M1084.09,630.87c3.38.63,4.66,3.22,4.76,7,.1,4.06-1.45,6.68-4.81,7.76-1.66-.39-3.31-1.12-5-1.12q-91.74,0-183.49,0c-5.18-3.57-4.66-7.84-1.1-12.47q92.34,0,184.67.05C1080.8,632.09,1082.44,631.3,1084.09,630.87Z" transform="translate(-602.52 -143.54)" fill="#5d62fa"/><path d="M985.49,607.68c6.56,3.41,6.73,8,1.88,13.62H895.56c-5.51-4.94-4.57-9.4.73-13.52,11.5.39,23,1.14,34.49,1.08C949,608.76,967.26,608.1,985.49,607.68Z" transform="translate(-602.52 -143.54)" fill="#5d62fa"/><path d="M1084.09,630.87c-1.65.43-3.29,1.22-4.94,1.22q-92.33,0-184.67-.05c1.24-.5,2.49-1.44,3.73-1.44Q991.15,630.66,1084.09,630.87Z" transform="translate(-602.52 -143.54)" fill="#5d62fa"/><path d="M895.58,644.51q91.74,0,183.49,0c1.66,0,3.31.73,5,1.12q-92.38.12-184.78.18C898,645.78,896.81,645,895.58,644.51Z" transform="translate(-602.52 -143.54)" fill="#5d62fa"/><path d="M895.56,621.31h91.81c-12,.48-24,1.39-36.08,1.33C932.71,622.54,914.14,621.78,895.56,621.31Z" transform="translate(-602.52 -143.54)" fill="#5d62fa"/><path d="M985.49,607.68c-18.23.42-36.47,1.08-54.71,1.19-11.49.06-23-.69-34.49-1.08Z" transform="translate(-602.52 -143.54)" fill="#5d62fa"/><path d="M1320.69,630.9c3.55.66,4.61,3.77,4.65,7.29s-1.45,6.41-4.7,7.38c-1.66-.38-3.32-1.09-5-1.09q-92.15-.06-184.29,0c-4.64-4-4.37-8.12-.37-12.44q92.37,0,184.75,0C1317.39,632.09,1319,631.32,1320.69,630.9Z" transform="translate(-602.52 -143.54)" fill="#5d62fa"/><path d="M1131.36,621.32c-4.6-4.1-4.53-8.26-.14-12.5,9.23,0,18.46.22,27.68.09,21.06-.31,42.12-.76,63.18-1.15,3.25.52,4.42,3.29,4.6,6.56.21,3.89-1.1,6.95-4.62,8.06-1.66-.38-3.31-1.1-5-1.11Q1174.22,621.23,1131.36,621.32Z" transform="translate(-602.52 -143.54)" fill="#5d62fa"/><path d="M1131.37,644.5q92.14,0,184.29,0c1.66,0,3.32.71,5,1.09q-93.08.13-186.16.2C1133.44,645.77,1132.41,644.94,1131.37,644.5Z" transform="translate(-602.52 -143.54)" fill="#5d62fa"/><path d="M1320.69,630.9c-1.65.42-3.3,1.19-4.94,1.19q-92.38.06-184.75,0c1-.49,2-1.41,3.07-1.41Q1227.39,630.69,1320.69,630.9Z" transform="translate(-602.52 -143.54)" fill="#5d62fa"/><path d="M1131.36,621.32q42.87,0,85.73-.05c1.66,0,3.31.73,5,1.11q-43.8.15-87.6.22C1133.43,622.6,1132.39,621.76,1131.36,621.32Z" transform="translate(-602.52 -143.54)" fill="#5d62fa"/><path d="M1222.08,607.76c-21.06.39-42.12.84-63.18,1.15-9.22.13-18.45,0-27.68-.09,11.81-.5,23.61-1.33,35.41-1.42C1185.11,607.26,1203.6,607.61,1222.08,607.76Z" transform="translate(-602.52 -143.54)" fill="#5d62fa"/><path d="M847.42,475.44c6.19,1.9,6,6.68,4,12.29-4.4.38-8.81,1.09-13.22,1.1q-90.11.21-180.21.25c-3.82-5.92-2.94-10.47,2.84-13.61a24.06,24.06,0,0,0,5,1.07q88.29.07,176.59,0C844.11,476.54,845.77,475.82,847.42,475.44Z" transform="translate(-602.52 -143.54)" fill="#5d62fa"/><path d="M747.67,452.25c4.93-.08,6.22,3.66,6.2,8.47,0,5.17-3,7.4-6.78,7.42q-42,.21-84,0c-3.19,0-6.28-1.33-7-5.72-.76-4.74.32-8.57,4.74-10.08A684.68,684.68,0,0,0,747.67,452.25Z" transform="translate(-602.52 -143.54)" fill="#5d62fa"/><path d="M658,489.08q90.11-.1,180.21-.25c4.41,0,8.82-.72,13.22-1.1-2,4.06-5.44,3.72-8.7,3.72q-88.29,0-176.58-.09C663.46,491.35,660.74,489.87,658,489.08Z" transform="translate(-602.52 -143.54)" fill="#5d62fa"/><path d="M847.42,475.44c-1.65.38-3.31,1.1-5,1.1q-88.31.07-176.59,0a24.06,24.06,0,0,1-5-1.07Z" transform="translate(-602.52 -143.54)" fill="#5d62fa"/><path d="M747.67,452.25a684.68,684.68,0,0,1-86.78.07Z" transform="translate(-602.52 -143.54)" fill="#5d62fa"/><path d="M1319.49,475.42c3.84.76,5.92,3.28,5.79,8-.28.75-.55,1.49-.82,2.24l0,.39c-.47,1-.93,1.92-1.39,2.87h0l-192.11.24h-.29l-.2-.25-2.2-6.85c.44-2.66,1-5.26,3.87-5.55q91.17,0,182.34,0C1316.18,476.54,1317.84,475.81,1319.49,475.42Z" transform="translate(-602.52 -143.54)" fill="#5d62fa"/><path d="M1220.9,452.24c4.51.83,6.25,4.42,5.67,9.2s-3.7,6.78-7.53,6.78q-41.62.09-83.25,0c-3.88,0-6.86-2.16-7.48-6.88-.66-5,1.43-8.18,5.77-9.09A655,655,0,0,0,1220.9,452.24Z" transform="translate(-602.52 -143.54)" fill="#5d62fa"/><path d="M1131,489.15l192.11-.24c-2.89.85-5.78,2.43-8.67,2.44q-87.66.22-175.32,0C1136.41,491.36,1133.71,489.92,1131,489.15Z" transform="translate(-602.52 -143.54)" fill="#5d62fa"/><path d="M1319.49,475.42c-1.65.39-3.31,1.12-5,1.12q-91.17,0-182.34,0c1.23-.43,2.46-1.24,3.7-1.24Q1227.68,475.29,1319.49,475.42Z" transform="translate(-602.52 -143.54)" fill="#5d62fa"/><path d="M1220.9,452.24a655,655,0,0,1-86.82,0Z" transform="translate(-602.52 -143.54)" fill="#5d62fa"/><path d="M1128.31,482.06l2.2,6.85Z" transform="translate(-602.52 -143.54)" fill="#5d62fa"/><path d="M1323.09,488.92c.46-.95.92-1.91,1.39-2.87C1324,487,1323.55,488,1323.09,488.92Z" transform="translate(-602.52 -143.54)" fill="#5d62fa"/><path d="M1324.46,485.66c.27-.75.54-1.49.82-2.24C1325,484.17,1324.73,484.91,1324.46,485.66Z" transform="translate(-602.52 -143.54)" fill="#5d62fa"/><path d="M1082.88,475.43c3.5.31,5.65,2.26,5.77,6.64l-1,5.52,0,0-1.16,1.52.07-.05-191.8.4-.09-.07L893.49,488l-.06-.12q.21-5,.4-10.07l1.71-1.25q91.19,0,182.36,0C1079.56,476.54,1081.22,475.82,1082.88,475.43Z" transform="translate(-602.52 -143.54)" fill="#5d62fa"/><path d="M984.29,452.25c4.64.4,6.23,3.75,5.94,8.72s-3.15,7.21-7,7.22q-41.88.15-83.77,0c-3.59,0-6.53-1.71-7.09-6.33s.4-8.63,5.12-9.59A675.81,675.81,0,0,0,984.29,452.25Z" transform="translate(-602.52 -143.54)" fill="#5d62fa"/><path d="M894.79,489.41l191.8-.4c-2.69.82-5.38,2.34-8.07,2.35q-88,.19-176.09,0C899.89,491.37,897.34,490.09,894.79,489.41Z" transform="translate(-602.52 -143.54)" fill="#5d62fa"/><path d="M1082.88,475.43c-1.66.39-3.32,1.11-5,1.11q-91.17,0-182.36,0c1.23-.43,2.47-1.24,3.7-1.24Q991.06,475.29,1082.88,475.43Z" transform="translate(-602.52 -143.54)" fill="#5d62fa"/><path d="M984.29,452.25a675.81,675.81,0,0,1-86.8,0Z" transform="translate(-602.52 -143.54)" fill="#5d62fa"/><path d="M893.83,477.76q-.2,5-.4,10.07C891,484.33,891.06,481,893.83,477.76Z" transform="translate(-602.52 -143.54)" fill="#5d62fa"/><path d="M1087.66,487.59l1-5.52Z" transform="translate(-602.52 -143.54)" fill="#5d62fa"/><path d="M1086.52,489.06l1.16-1.52Z" transform="translate(-602.52 -143.54)" fill="#5d62fa"/><path d="M893.49,488l1.21,1.39Z" transform="translate(-602.52 -143.54)" fill="#5d62fa"/></svg>