<svg id="Layer_2" data-name="Layer 2" xmlns="http://www.w3.org/2000/svg" viewBox="0 0 202.6 481.46"><g id="man"><g id="body"><g id="right_hand" data-name="right hand"><path d="M405.73,128.56a20.08,20.08,0,0,1,39.8-3.82h0l15.12,66.77a19.71,19.71,0,0,1-14.77,23.54h0a19.71,19.71,0,0,1-23.61-14.63l-16.13-67.75h0A19.9,19.9,0,0,1,405.73,128.56Z" transform="translate(-273.7 -9.27)" fill="#7d7bc7"/><polygon points="186.24 208.51 198.02 264.02 179.76 266.82 161.5 215.32 186.24 208.51" fill="#f3a396"/><path d="M463.3,268.14h0a9.46,9.46,0,0,1,9,6.54l3,9.21a11.61,11.61,0,0,1,.86,6.68l-.58,17.66a2.54,2.54,0,0,1-.76,1.43c-1.62,1.52-4.48,4.91-12.84,2a2.58,2.58,0,0,1-1.71-2.28l-3.48-19.51L454,297.26a2.68,2.68,0,0,1-4.07,1.24h0a2.69,2.69,0,0,1-1.1-2.52l1.63-12.71a15.19,15.19,0,0,1,3.23-7.62l1.14-2.29A9.47,9.47,0,0,1,463.3,268.14Z" transform="translate(-273.7 -9.27)" fill="#f3a396"/><path d="M433.45,242.16,422.64,202a19.7,19.7,0,0,1,14.77-23.54h0A19.69,19.69,0,0,1,461,193L470.79,234Z" transform="translate(-273.7 -9.27)" fill="#7d7bc7"/><polygon points="159.75 232.89 156.36 220.29 194.07 212.05 197.09 224.68 159.75 232.89" fill="#a6a6e2"/></g><g id="left_hand" data-name="left hand"><path d="M344.27,128.56a20.08,20.08,0,0,0-39.8-3.82h0l-15.12,66.77a19.71,19.71,0,0,0,14.77,23.54h0a19.71,19.71,0,0,0,23.61-14.63l16.13-67.75h0A19.9,19.9,0,0,0,344.27,128.56Z" transform="translate(-273.7 -9.27)" fill="#7d7bc7"/><polygon points="16.36 208.51 4.58 264.02 22.84 266.82 41.1 215.32 16.36 208.51" fill="#f3a396"/><path d="M286.7,268.14h0a9.46,9.46,0,0,0-9,6.54l-3,9.21a11.61,11.61,0,0,0-.86,6.68l.58,17.66a2.54,2.54,0,0,0,.76,1.43c1.62,1.52,4.48,4.91,12.84,2a2.58,2.58,0,0,0,1.71-2.28l3.48-19.51,2.76,7.38a2.68,2.68,0,0,0,4.07,1.24h0a2.69,2.69,0,0,0,1.1-2.52l-1.63-12.71a15.19,15.19,0,0,0-3.23-7.62l-1.14-2.29A9.47,9.47,0,0,0,286.7,268.14Z" transform="translate(-273.7 -9.27)" fill="#f3a396"/><path d="M316.55,242.16,327.36,202a19.7,19.7,0,0,0-14.77-23.54h0A19.69,19.69,0,0,0,289,193L279.21,234Z" transform="translate(-273.7 -9.27)" fill="#7d7bc7"/><polygon points="42.85 232.89 46.24 220.29 8.53 212.05 5.51 224.68 42.85 232.89" fill="#a6a6e2"/></g><g id="ch"><polygon points="158.36 100.19 118.21 87.76 81.44 87.76 44.69 99.89 43.9 223.36 158.36 223.36 158.36 100.19" fill="#7d7bc7"/><line x1="44.72" y1="223.36" x2="44.44" y2="136.43" fill="none" stroke="#6666b2" stroke-miterlimit="10" stroke-width="1.1"/><line x1="157.39" y1="223.36" x2="157.29" y2="136.43" fill="none" stroke="#6666b2" stroke-miterlimit="10" stroke-width="1.1"/><polygon points="81.44 87.76 67.48 92.37 100.83 117.99 133.86 92.49 118.21 87.76 81.44 87.76" fill="#f3a396"/></g></g><g id="pant"><g id="west"><polygon points="43.9 223.36 158.36 223.36 157.02 274.4 45.73 274.4 43.9 223.36" fill="#1a3e73"/><rect x="44.23" y="230.44" width="113.82" height="7.73"/><rect x="88.33" y="226.19" width="24.25" height="16.41"/><rect x="93.06" y="230.17" width="14.67" height="8.44" fill="#fff"/><rect x="64.5" y="229.39" width="5.79" height="10.2" fill="#1a3e73"/><rect x="130.78" y="229.39" width="5.79" height="10.2" fill="#1a3e73"/></g><g id="right_leg" data-name="right leg"><path d="M430.8,283.16l-1.11,61.9a24.18,24.18,0,0,1-24.18,23.76h0a24.19,24.19,0,0,1-24.2-24.32l.33-61.77a24.58,24.58,0,0,1,24.58-24.58h0A24.58,24.58,0,0,1,430.8,283.16Z" transform="translate(-273.7 -9.27)" fill="#1a3e73"/><path d="M387,452.72v31.86h53.6v-5.52a11.57,11.57,0,0,0-4.91-9.55c-2.59-1.79-6.5-3.28-12.36-3.39v-13.4Z" transform="translate(-273.7 -9.27)" fill="#1a1a1a"/><rect x="387.03" y="484.58" width="55.06" height="6.15" transform="translate(555.43 966.04) rotate(180)" fill="#fff"/><path d="M423.36,465.12s-12.7-.64-18.27,7.34" transform="translate(-273.7 -9.27)" fill="none" stroke="#fff" stroke-miterlimit="10" stroke-width="1.1"/><path d="M428,453.33h-47l.53-108.17a24,24,0,0,1,24-24h0a24,24,0,0,1,24,24.46Z" transform="translate(-273.7 -9.27)" fill="#1a3e73"/><rect x="381.18" y="434.3" width="49.6" height="19.67" transform="translate(538.27 879.01) rotate(180)" fill="#295589"/></g><g id="left_leg" data-name="left leg"><path d="M319.41,283.16l1.1,61.9a24.2,24.2,0,0,0,24.19,23.76h0a24.19,24.19,0,0,0,24.19-24.32l-.33-61.77A24.57,24.57,0,0,0,344,258.15h0A24.58,24.58,0,0,0,319.41,283.16Z" transform="translate(-273.7 -9.27)" fill="#1a3e73"/><path d="M363.17,452.72v31.86H309.58v-5.52a11.57,11.57,0,0,1,4.91-9.55c2.59-1.79,6.5-3.28,12.36-3.39v-13.4Z" transform="translate(-273.7 -9.27)" fill="#1a1a1a"/><rect x="34.41" y="475.31" width="55.06" height="6.15" fill="#fff"/><path d="M326.85,465.12s12.7-.64,18.27,7.34" transform="translate(-273.7 -9.27)" fill="none" stroke="#fff" stroke-miterlimit="10" stroke-width="1.1"/><path d="M322.18,453.33h47l-.53-108.17a24,24,0,0,0-24-24h0a24,24,0,0,0-24,24.46Z" transform="translate(-273.7 -9.27)" fill="#1a3e73"/><rect x="45.72" y="425.03" width="49.6" height="19.67" fill="#295589"/></g></g><g id="head"><g id="sadow"><path d="M373.59,114h0a18.33,18.33,0,0,1-18.33-18.33v-39h36.65v39A18.33,18.33,0,0,1,373.59,114Z" transform="translate(-273.7 -9.27)" fill="#f3a396"/><path d="M355.26,73.08s10.09,18.74,21.61,17.83c17.81-1.42,14.86-23.5,14.86-23.5s-6.91,14.73-17.84,14.74A23.89,23.89,0,0,1,355.26,73.08Z" transform="translate(-273.7 -9.27)" fill="#1a1a1a"/></g><g id="face"><path d="M357.9,19a23.94,23.94,0,0,1,25-9c11.64,2.6,15.4,13,17,17.53a10.72,10.72,0,0,1,.48,5.47l-3.58,18.2-17-28.2-16.4,1.3Z" transform="translate(-273.7 -9.27)" fill="#8a2b25"/><path d="M396.73,51.15a5.36,5.36,0,0,1,6.6-1.73c4.41,1.67,2.42,12.38-4.2,13.74a5.21,5.21,0,0,1-4.22-1.1S396.48,54.15,396.73,51.15Z" transform="translate(-273.7 -9.27)" fill="#f3a396"/><path d="M402.46,53.19s-3.69-1.23-6.32,4.21" transform="translate(-273.7 -9.27)" fill="none" stroke="#d26665" stroke-linecap="round" stroke-linejoin="round" stroke-width="0.51"/><path d="M397.94,54.74s4,2.15,1.36,5.38" transform="translate(-273.7 -9.27)" fill="none" stroke="#d26665" stroke-linecap="round" stroke-linejoin="round" stroke-width="0.51"/><path d="M351.65,51.14a5.26,5.26,0,0,0-6.54-1.72c-4.41,1.67-2.42,12.38,4.2,13.74a5.23,5.23,0,0,0,4.23-1.1S351.91,54.15,351.65,51.14Z" transform="translate(-273.7 -9.27)" fill="#f3a396"/><path d="M346,53.19s3.7-1.23,6.32,4.21" transform="translate(-273.7 -9.27)" fill="none" stroke="#d26665" stroke-linecap="round" stroke-linejoin="round" stroke-width="0.51"/><path d="M350.5,54.74s-4,2.15-1.36,5.38" transform="translate(-273.7 -9.27)" fill="none" stroke="#d26665" stroke-linecap="round" stroke-linejoin="round" stroke-width="0.51"/><path d="M397.23,41c0,6.46-.63,20-4.6,28-3.73,7.52-9.89,11.57-18,11.82s-14.1-2.88-18.92-12.64-4.59-27-4.59-27,0-23,22.79-23C397.94,18.05,397.23,41,397.23,41Z" transform="translate(-273.7 -9.27)" fill="#f3a396"/><path d="M351.65,51.14l-4.48-18.82a8.74,8.74,0,0,1,.69-4.84c1.75-3.79,4.44-10.34,10-8.49l5.54,5.25S355,26,351.59,37Z" transform="translate(-273.7 -9.27)" fill="#8a2b25"/><path d="M399.07,37.5S396.5,18,384,16.58a44.09,44.09,0,0,0-23,4.14l-2.61,1.94s.43.52,1.27,1.35c-10,.95-8.51,15.81-8.51,15.81,6-4.61,6.53-8.67,8.15-11.73C365.14,32.84,380.47,38.62,399.07,37.5Z" transform="translate(-273.7 -9.27)" fill="#8a2b25"/><path d="M399.39,34.39l-3.61-1.08a60.57,60.57,0,0,1-.81,18.4c-.5,2.06-2.68,9.64-8.68,13.77,0,0-3.62-5.19-12.1-5.19h0c-8.48,0-12,5.19-12,5.19-4.72-3.25-7.07-8.62-8.11-11.78a57.37,57.37,0,0,1-1.29-20.39l-3.61,1.08,2.31,16.69L352,63c2.59,22.27,22.23,21.23,22.23,21.23h0s19.6,1.22,22.25-21.23L397,51.08h0Z" transform="translate(-273.7 -9.27)" fill="#8a2b25"/><path d="M372.56,45.65V56a1.75,1.75,0,0,0,.13.65,1.72,1.72,0,0,0,2.05,1l1.77-.48" transform="translate(-273.7 -9.27)" fill="none" stroke="#d26665" stroke-linecap="round" stroke-linejoin="round" stroke-width="0.51"/><line x1="95.77" y1="55.58" x2="104.95" y2="55.58" fill="none" stroke="#d26665" stroke-linecap="round" stroke-linejoin="round" stroke-width="0.51"/><path d="M365.21,49.46a1.77,1.77,0,1,1-1.77-1.76A1.76,1.76,0,0,1,365.21,49.46Z" transform="translate(-273.7 -9.27)" fill="#1a1a1a"/><circle cx="109.98" cy="40.2" r="1.76" fill="#1a1a1a"/><path d="M376.42,41.82l15.71,4.06s-.72-4.41-7.14-6S376.42,41.82,376.42,41.82Z" transform="translate(-273.7 -9.27)" fill="#1a1a1a"/><path d="M370.71,41.82,355,45.88s.72-4.41,7.14-6S370.71,41.82,370.71,41.82Z" transform="translate(-273.7 -9.27)" fill="#1a1a1a"/></g></g></g></svg>